HIERARCHY
ROOT Hips
{
	OFFSET 0.000000 0.000000 0.000000
	CHANNELS 6 Xposition Yposition Zposition Zrotation Yrotation Xrotation 
	JOINT LeftUpLeg_virtual
	{
		OFFSET 0.000000 0.000000 0.000000
		CHANNELS 3 Zrotation Yrotation Xrotation
		JOINT LeftUpLeg
		{
			OFFSET 8.479694 -4.795517 -0.379053
			CHANNELS 3 Zrotation Yrotation Xrotation
			JOINT LeftLeg
			{
				OFFSET 0.485052 -32.551468 0.112863
				CHANNELS 3 Zrotation Yrotation Xrotation
				JOINT LeftFoot
				{
					OFFSET 0.438033 -32.635670 -3.012641
					CHANNELS 3 Zrotation Yrotation Xrotation
					JOINT LeftToeBase
					{
						OFFSET 0.970169 -13.225353 11.864223
						CHANNELS 3 Zrotation Yrotation Xrotation
						End Site
						{
							OFFSET 0.000000 0.000000 0.000000
						}
					}
				}
			}
		}
	}
	JOINT RightUpLeg_virtual
	{
		OFFSET 0.000000 0.000000 0.000000
		CHANNELS 3 Zrotation Yrotation Xrotation
		JOINT RightUpLeg
		{
			OFFSET -8.479694 -4.795517 -0.379053
			CHANNELS 3 Zrotation Yrotation Xrotation
			JOINT RightLeg
			{
				OFFSET -0.484100 -32.551483 0.112903
				CHANNELS 3 Zrotation Yrotation Xrotation
				JOINT RightFoot
				{
					OFFSET -0.438985 -32.635651 -3.012681
					CHANNELS 3 Zrotation Yrotation Xrotation
					JOINT RightToeBase
					{
						OFFSET -0.970169 -13.225354 11.864223
						CHANNELS 3 Zrotation Yrotation Xrotation
						End Site
						{
							OFFSET 0.000000 0.000000 0.000000
						}
					}
				}
			}
		}
	}
	JOINT Spine_virtual
	{
		OFFSET 0.000000 0.000000 0.000000
		CHANNELS 3 Zrotation Yrotation Xrotation
		JOINT Spine
		{
			OFFSET 0.000000 7.722015 1.166203
			CHANNELS 3 Zrotation Yrotation Xrotation
			JOINT Spine1
			{
				OFFSET 0.000000 12.024086 0.248766
				CHANNELS 3 Zrotation Yrotation Xrotation
				JOINT Spine2
				{
					OFFSET -0.000000 11.503036 -0.491240
					CHANNELS 3 Zrotation Yrotation Xrotation
					JOINT Neck_virtual
					{
						OFFSET 0.000000 0.000000 0.000000
						CHANNELS 3 Zrotation Yrotation Xrotation
						JOINT Neck
						{
							OFFSET 0.000000 18.430687 -3.123054
							CHANNELS 3 Zrotation Yrotation Xrotation
							JOINT Head
							{
								OFFSET -0.000000 9.051071 1.034021
								CHANNELS 3 Zrotation Yrotation Xrotation
								End Site
								{
									OFFSET 0.000000 0.000000 0.000000
								}
							}
						}
					}
					JOINT LeftShoulder_virtual
					{
						OFFSET 0.000000 0.000000 0.000000
						CHANNELS 3 Zrotation Yrotation Xrotation
						JOINT LeftShoulder
						{
							OFFSET 6.197824 13.665230 -4.064723
							CHANNELS 3 Zrotation Yrotation Xrotation
							JOINT LeftArm
							{
								OFFSET 7.778132 -0.187073 -1.709282
								CHANNELS 3 Zrotation Yrotation Xrotation
								JOINT LeftForeArm
								{
									OFFSET 21.954697 0.000000 -2.041093
									CHANNELS 3 Zrotation Yrotation Xrotation
									JOINT LeftHand
									{
										OFFSET 22.992908 0.000000 -0.870901
										CHANNELS 3 Zrotation Yrotation Xrotation
										End Site
										{
											OFFSET 0.000000 0.000000 0.000000
										}
									}
								}
							}
						}
					}
					JOINT RightShoulder_virtual
					{
						OFFSET 0.000000 0.000000 0.000000
						CHANNELS 3 Zrotation Yrotation Xrotation
						JOINT RightShoulder
						{
							OFFSET -6.197824 13.665230 -4.064723
							CHANNELS 3 Zrotation Yrotation Xrotation
							JOINT RightArm
							{
								OFFSET -7.778132 -0.187073 -1.709282
								CHANNELS 3 Zrotation Yrotation Xrotation
								JOINT RightForeArm
								{
									OFFSET -21.954697 0.000000 -2.041093
									CHANNELS 3 Zrotation Yrotation Xrotation
									JOINT RightHand
									{
										OFFSET -22.992908 0.000000 -0.870901
										CHANNELS 3 Zrotation Yrotation Xrotation
										End Site
										{
											OFFSET 0.000000 0.000000 0.000000
										}
									}
								}
							}
						}
					}
				}
			}
		}
	}
}
MOTION
Frames: 13
Frame Time: 0.033333
10.755341 82.037903 5.491739 179.932851 5.331550 -179.916390 -3.797212 -0.838891 11.461975 1.502441 0.653302 -22.473648 3.104799 3.955958 25.211688 -7.132590 -8.546043 -7.273779 0.000000 0.000000 0.000000 0.446892 -1.423296 11.673548 -1.699953 -5.580327 -13.830676 -2.301436 3.551182 23.379777 10.588689 10.991122 -7.675934 0.000000 0.000000 0.000000 3.435684 1.481924 0.003885 -6.688886 0.558872 -2.250679 1.600301 -3.211948 5.085564 -0.029516 0.006220 0.019050 1.550791 -2.191648 5.020924 -1.648433 3.435477 -11.849011 0.000000 0.000000 0.000000 2.786919 -1.349086 2.373834 7.233905 1.426049 -4.856618 -20.733676 6.380921 -36.579215 -5.034260 -18.588001 -5.398081 0.000000 0.000000 0.000000 -0.810761 -0.199419 1.751986 10.122741 -6.392836 -3.113550 11.044824 -8.679438 -45.406855 0.389026 29.382777 -2.891507 0.000000 0.000000 0.000000 
10.743084 82.021561 5.550458 179.919573 5.206806 -179.865901 -3.840449 -0.930190 11.411436 1.423395 0.699866 -22.567128 3.103848 4.116041 25.366669 -7.140571 -8.324759 -7.486511 0.000000 0.000000 0.000000 0.440522 -1.321899 11.798015 -1.859045 -5.134342 -13.731566 -2.355779 3.954583 23.389954 10.805091 11.222169 -7.266497 0.000000 0.000000 0.000000 3.404117 1.464776 0.051636 -6.716180 0.524295 -2.288898 1.590728 -3.242246 5.040776 -0.012367 -0.023687 0.041261 1.516419 -2.241346 5.024461 -1.654180 3.456691 -11.841970 0.000000 0.000000 0.000000 2.789672 -1.370293 2.292237 7.268398 1.379829 -4.859798 -20.797106 6.626369 -36.469208 -4.987651 -18.600200 -5.428336 0.000000 0.000000 0.000000 -0.824257 -0.201855 1.821836 10.175991 -6.408589 -3.123640 11.053140 -8.622630 -45.492188 0.391079 29.435691 -2.895018 0.000000 0.000000 0.000000 
10.737201 82.024399 5.621464 179.906568 5.265108 -179.903331 -3.853620 -0.856930 11.429713 1.460138 0.669499 -22.579378 3.123715 4.035946 25.338458 -7.138092 -8.314695 -7.455050 0.000000 0.000000 0.000000 0.520646 -1.317712 11.792986 -1.960331 -5.264754 -13.750323 -2.360432 3.947393 23.360814 10.921024 11.297667 -7.265432 0.000000 0.000000 0.000000 3.335834 1.594006 0.170677 -6.716501 0.461782 -2.286927 1.589401 -3.281177 5.017772 -0.016989 -0.063945 0.069751 1.527923 -2.216918 4.995038 -1.607101 3.401439 -11.732461 0.000000 0.000000 0.000000 2.799522 -1.252230 2.263997 7.377619 1.348085 -4.821970 -20.757204 6.561294 -36.618553 -4.941756 -18.563718 -5.304821 0.000000 0.000000 0.000000 -0.796380 -0.189526 1.824270 10.213356 -6.380528 -3.147145 11.149036 -8.716821 -45.630206 0.452829 29.502657 -2.846512 0.000000 0.000000 0.000000 
10.729721 82.032623 5.687242 179.906964 5.264059 -179.894656 -3.881244 -0.855014 11.371056 1.462386 0.662065 -22.582216 3.165307 3.984488 25.323258 -7.113212 -8.236674 -7.422877 0.000000 0.000000 0.000000 0.460983 -1.331836 11.774554 -1.905643 -5.304005 -13.783076 -2.304108 3.910325 23.287378 10.971964 11.315387 -7.196251 0.000000 0.000000 0.000000 3.282897 1.532661 0.241818 -6.690827 0.579617 -2.271214 1.602875 -3.154414 4.948330 -0.023148 -0.002349 0.008029 1.550541 -2.144419 5.015229 -1.543327 3.377495 -11.738159 0.000000 0.000000 0.000000 2.805557 -1.370237 2.337572 7.440074 1.054236 -4.863924 -20.726708 6.665473 -36.585724 -4.866418 -18.650130 -5.193116 0.000000 0.000000 0.000000 -0.806433 -0.209985 1.776223 10.336394 -6.417517 -3.075670 11.336117 -9.022010 -45.737334 0.501885 29.626208 -2.831313 0.000000 0.000000 0.000000 
10.728284 82.045166 5.751778 179.911786 5.343820 -179.865314 -3.931746 -0.868949 11.310350 1.495729 0.604445 -22.585699 3.183095 3.993061 25.296948 -7.123460 -8.197621 -7.385282 0.000000 0.000000 0.000000 0.446103 -1.272731 11.731756 -1.918482 -5.335736 -13.809028 -2.304006 3.931906 23.240373 11.017871 11.295790 -7.141575 0.000000 0.000000 0.000000 3.168661 1.479683 0.268352 -6.640272 0.510765 -2.259790 1.605039 -3.199475 4.946697 -0.015292 0.123906 0.057778 1.530323 -2.124301 4.911639 -1.502813 3.379441 -11.660613 0.000000 0.000000 0.000000 2.804970 -1.258654 2.227341 7.484685 0.949836 -4.801401 -20.750084 6.748763 -36.628372 -4.805570 -18.719301 -4.914468 0.000000 0.000000 0.000000 -0.815451 -0.136022 1.758107 10.423486 -6.299588 -3.099620 11.484391 -9.150236 -45.968211 0.567514 29.717392 -2.727950 0.000000 0.000000 0.000000 
10.733972 82.059189 5.818183 179.898208 5.424819 -179.874862 -3.998135 -0.869912 11.269661 1.569369 0.558570 -22.585561 3.194022 3.956387 25.285311 -7.084329 -8.109406 -7.360920 0.000000 0.000000 0.000000 0.500555 -1.256011 11.698230 -1.950764 -5.331115 -13.830747 -2.337909 3.984760 23.260078 11.071022 11.272992 -7.090869 0.000000 0.000000 0.000000 3.047103 1.491861 0.337854 -6.529702 0.564812 -2.213917 1.645603 -3.126449 4.911923 0.016628 -0.002861 0.036799 1.508148 -2.101088 4.912717 -1.439636 3.429209 -11.538297 0.000000 0.000000 0.000000 2.768655 -1.198174 2.219397 7.449659 0.793235 -4.679370 -20.848054 6.899921 -36.728567 -4.685795 -18.845438 -4.839000 0.000000 0.000000 0.000000 -0.871661 -0.055652 1.712539 10.547236 -6.159345 -2.930459 11.744100 -9.443196 -46.238782 0.509140 29.827580 -2.751179 0.000000 0.000000 0.000000 
10.741488 82.066864 5.882976 179.911404 5.456726 -179.882731 -4.035343 -0.931449 11.240691 1.632268 0.490212 -22.587009 3.224478 3.907157 25.341086 -7.033120 -7.997779 -7.367192 0.000000 0.000000 0.000000 0.389393 -1.287221 11.694088 -1.787217 -5.233616 -13.864966 -2.302928 4.031792 23.266198 11.062448 11.169457 -7.017689 0.000000 0.000000 0.000000 2.988243 1.452830 0.359644 -6.404645 0.605175 -2.097561 1.593272 -3.090582 4.934056 -0.029810 -0.022002 0.038352 1.537736 -2.011167 4.861145 -1.354371 3.047653 -11.423725 0.000000 0.000000 0.000000 2.744395 -1.042817 2.231236 7.396712 0.603660 -4.589488 -21.053508 6.958193 -36.874477 -4.566850 -19.028127 -4.546242 0.000000 0.000000 0.000000 -0.838100 -0.010319 1.693796 10.590546 -6.067750 -3.152459 11.878308 -9.638275 -46.524735 0.716750 29.911403 -2.407221 0.000000 0.000000 0.000000 
10.747618 82.074684 5.947460 179.972452 5.575315 -179.873961 -4.008863 -0.930793 11.212032 1.692331 0.230038 -22.623146 3.338052 4.154027 25.365953 -7.092929 -7.951837 -7.308001 0.000000 0.000000 0.000000 0.442464 -1.254281 11.675209 -1.781909 -5.177957 -13.933269 -2.315686 4.154278 23.272454 11.134811 11.077172 -6.968634 0.000000 0.000000 0.000000 2.917208 1.410729 0.356971 -6.241580 0.642743 -1.984735 1.574669 -3.059812 4.972881 -0.010898 -0.015371 0.071495 1.483239 -1.972090 4.853293 -1.313004 2.857889 -11.192846 0.000000 0.000000 0.000000 2.688306 -1.032047 2.180013 7.324253 0.684879 -4.768249 -21.213456 7.158642 -36.932667 -4.509261 -19.181290 -4.279751 0.000000 0.000000 0.000000 -0.912212 -0.004654 1.714735 10.654416 -5.865327 -2.955819 12.026425 -9.693990 -46.800811 0.524119 29.989855 -2.441207 0.000000 0.000000 0.000000 
10.745917 82.075607 6.012504 179.969310 5.588648 -179.885080 -4.030746 -1.017908 11.213928 1.727863 0.080250 -22.654831 3.371503 4.170718 25.407593 -7.067438 -7.861161 -7.310331 0.000000 0.000000 0.000000 0.424905 -1.304674 11.689824 -1.754714 -5.166421 -14.023830 -2.292879 4.209389 23.321860 11.209059 10.998981 -6.956684 0.000000 0.000000 0.000000 2.831997 1.373782 0.359389 -6.074447 0.655440 -1.888929 1.515964 -3.065193 4.997720 -0.017502 -0.041948 0.068685 1.438040 -1.950715 4.845776 -1.348688 2.608088 -10.975882 0.000000 0.000000 0.000000 2.655752 -1.011979 2.189287 7.162234 0.607863 -4.676616 -21.245671 7.249308 -37.020923 -4.337190 -19.360108 -4.031326 0.000000 0.000000 0.000000 -0.960452 0.041482 1.694340 10.854720 -5.584921 -2.832424 11.993930 -9.880763 -47.018472 0.412468 30.008979 -2.377993 0.000000 0.000000 0.000000 
10.742558 82.075417 6.072939 179.966687 5.685192 -179.897088 -4.045905 -0.954131 11.213857 1.763117 -0.115699 -22.716038 3.406334 4.255032 25.405811 -7.049714 -7.794031 -7.290119 0.000000 0.000000 0.000000 0.415862 -1.230501 11.714895 -1.726788 -5.084647 -14.162330 -2.276477 4.293800 23.454052 11.242687 10.884281 -6.953036 0.000000 0.000000 0.000000 2.743383 1.412726 0.368901 -5.875277 0.700348 -1.826953 1.451611 -3.038698 5.039073 -0.018122 -0.023479 0.068813 1.384648 -1.967328 4.820411 -1.438447 2.320480 -10.698493 0.000000 0.000000 0.000000 2.596000 -0.997214 2.212590 7.016826 0.572807 -4.586215 -21.179283 7.262165 -36.993708 -4.142809 -19.487884 -3.754626 0.000000 0.000000 0.000000 -0.983122 0.026129 1.727840 10.921169 -5.248300 -2.628638 12.058478 -9.906701 -47.260107 0.166235 30.041918 -2.411632 0.000000 0.000000 0.000000 
10.751249 82.082085 6.141007 179.867868 5.607675 -179.835589 -4.156571 -1.021193 11.211586 1.831833 -0.350201 -22.811640 3.424472 4.407860 25.357794 -6.996445 -7.694173 -7.223070 0.000000 0.000000 0.000000 0.355979 -1.218129 11.733138 -1.713048 -5.039371 -14.376785 -2.242328 4.293430 23.606064 11.194373 10.726004 -6.979198 0.000000 0.000000 0.000000 2.635528 1.506744 0.352240 -5.662642 0.745973 -1.840700 1.359964 -3.045056 5.051167 -0.018138 -0.027015 0.010977 1.321341 -1.968388 4.842298 -1.605075 2.084059 -10.421516 0.000000 0.000000 0.000000 2.555406 -1.083402 2.302958 6.852786 0.449144 -4.285764 -21.044417 7.149806 -36.870560 -3.833083 -19.794742 -3.487003 0.000000 0.000000 0.000000 -1.008199 -0.012353 1.778096 11.026588 -4.773223 -2.513511 12.140273 -10.173371 -47.656269 0.091069 30.286418 -2.325761 0.000000 0.000000 0.000000 
10.797298 82.090065 6.217285 179.987000 5.564109 -179.826395 -4.070954 -0.931681 11.252374 1.963871 -0.546453 -22.907739 3.410139 4.383696 25.310139 -6.951534 -7.745759 -7.171038 0.000000 0.000000 0.000000 0.469815 -1.216145 11.763089 -1.655252 -4.840746 -14.581327 -2.186364 4.358700 23.825568 11.074121 10.461131 -6.983663 0.000000 0.000000 0.000000 2.663879 1.517503 0.388878 -5.314555 0.777295 -1.862942 1.313938 -3.060273 5.121367 0.005673 -0.026551 0.047079 1.201830 -2.034770 4.844984 -1.830755 1.805613 -9.967372 0.000000 0.000000 0.000000 2.453746 -1.159091 2.254444 6.720789 0.504687 -4.187757 -21.060685 7.299698 -36.411431 -3.563124 -20.314670 -2.996660 0.000000 0.000000 0.000000 -1.134726 0.010044 1.792955 11.212223 -4.269760 -2.107928 12.458038 -10.486344 -47.963173 -0.293677 30.933592 -2.529117 0.000000 0.000000 0.000000 
10.852055 82.111076 6.298035 179.842815 5.536912 -179.835384 -4.224041 -0.835684 11.354534 2.108833 -0.819950 -23.028104 3.401653 4.469835 25.236548 -6.900610 -7.785832 -7.025805 0.000000 0.000000 0.000000 0.414028 -1.252259 11.781333 -1.707050 -4.673930 -14.776228 -2.153967 4.384796 24.046060 10.983077 10.277329 -6.963407 0.000000 0.000000 0.000000 2.568660 1.534071 0.388752 -5.041523 0.871683 -1.931031 1.196546 -3.040650 5.209437 -0.015277 -0.000577 0.060565 1.163874 -1.972258 4.878957 -2.067959 1.433504 -9.382556 0.000000 0.000000 0.000000 2.446814 -1.170325 2.294043 6.576781 0.572914 -4.065231 -21.307033 7.383356 -35.820278 -3.175410 -21.250377 -2.420297 0.000000 0.000000 0.000000 -1.116630 -0.012662 1.758993 11.381156 -3.825321 -1.963338 13.186251 -11.123921 -47.986341 -0.462718 32.156152 -2.481041 0.000000 0.000000 0.000000 
